<?xml version="1.0" encoding="UTF-8"?>
<svg id="Layer_1" data-name="Layer 1" xmlns="http://www.w3.org/2000/svg" viewBox="0 0 360 240">
  <defs>
    <style>
      .cls-1 {
        fill: #f4f4f5;
      }

      .cls-2 {
        fill: #f4f5f5;
      }

      .cls-3 {
        fill: #f3f3f4;
      }

      .cls-4 {
        fill: #f9f8fb;
      }

      .cls-5 {
        fill: #f7f7f9;
      }

      .cls-6 {
        fill: #fff;
      }

      .cls-7 {
        fill: #131312;
      }

      .cls-8 {
        fill: #2e2b2d;
      }

      .cls-9 {
        fill: #f7f6f6;
      }

      .cls-10 {
        fill: #f6f5f7;
      }

      .cls-11 {
        fill: #f7f6f9;
      }

      .cls-12 {
        fill: #fafbfc;
      }

      .cls-13 {
        fill: #f3f2f3;
      }

      .cls-14 {
        fill: #f8f8f9;
      }

      .cls-15 {
        fill: #f4f6f6;
      }

      .cls-16 {
        fill: #b8c1c0;
      }

      .cls-17 {
        fill: #151414;
      }

      .cls-18 {
        fill: #e9a5a5;
      }

      .cls-19 {
        fill: #f5f5f5;
      }

      .cls-20 {
        fill: #f7fafb;
      }

      .cls-21 {
        fill: #161817;
      }

      .cls-22 {
        fill: #82c1d9;
      }

      .cls-23 {
        fill: #feffff;
      }

      .cls-24 {
        fill: #f1f0f2;
      }

      .cls-25 {
        fill: #2f2c2d;
      }
    </style>
  </defs>
  <g id="Generative_Object" data-name="Generative Object">
    <g>
      <g>
        <polygon class="cls-16" points="311.49 135.28 287.19 130.39 287.02 121.71 311.53 116.1 311.49 135.28"/>
        <path class="cls-6" d="M308.53,126.42c-1.12-1.97-.74-4.18-1.43-6.36-5.44.83-10.13,2.58-15.57,2.79l17.47-4.34c0,2.94,0,5.15-.47,7.92Z"/>
      </g>
      <g>
        <g>
          <path class="cls-16" d="M65.74,196.68c-1.63.82-3.33.5-5.22.18l-.08-71.88c1.71-.4,3.26-.32,5.28-.07l.02,71.78Z"/>
          <g>
            <path class="cls-16" d="M287.25,199.12l.11-59.91c1.29-.45,2.45-.33,3.79-.02l.17,9.34,13.82-4.05,54.85-14.73-.08,81.26-66.02-16.18c-.61,1.48-.31,2.67-.45,4.31-1.97.22-3.61.12-6.19-.02Z"/>
            <path class="cls-6" d="M349.02,139.65l-54.13,13c-.57-.83-.57-1.85,0-2.84l59.15-15.87-2.07,22.17c-2.07-5.34-2.14-10.84-2.94-16.47Z"/>
          </g>
          <g>
            <path class="cls-16" d="M58.36,137.59l-8.98.24c-.43.01-1.49,1.28-1.6.48-.55-3.96-.21-7.98-.28-12.17,1.06-.33,1.21.77,1.91.77l8.9.05.05,10.63Z"/>
            <path class="cls-16" d="M46.06,138.14c-2.6.65-5.27.17-8.14.2l-.07-12.31h8.08s.14,12.11.14,12.11Z"/>
            <g>
              <path class="cls-16" d="M36.21,140.19l-32.28-.03c-5.39-4.33-5.12-12.5.14-16.75l32.01-.02.13,16.8Z"/>
              <path class="cls-6" d="M34.46,127.51l-28.26.12c-.76,0-1.21-.21-1.33-.83s.41-1.01,1.33-1.01h27.86c.53,0,.9.28,1.06.51s-.01,1.21-.67,1.22Z"/>
            </g>
          </g>
        </g>
        <g>
          <path class="cls-16" d="M272.27,240l-53.84-.03h-83.95s-52.95-.05-52.95-.05c-7.3,0-13.8-5.99-13.81-13.3l-.06-107.49c0-7.15,6.44-13.5,13.97-13.5h189.67c7.72-.02,14.03,6.73,14.03,13.85l.1,105.15c0,7.92-4.78,14.15-13.16,15.36Z"/>
          <g>
            <path class="cls-22" d="M273.69,219.44c0,6.2-5.64,8.75-11.05,8.74l-174.92-.14c-5.02,0-8.39-4.85-8.39-9.33l-.1-91.16c0-4.61,3.02-10.05,8.51-10.05l175.92-.12c5.13,0,10.08,3.41,10.08,8.72l-.04,93.34Z"/>
            <path class="cls-18" d="M258.19,131.96h-45.52c-.57-.97-.78-2.8.07-3.85l45.5.05c.26,1.3.34,2.1-.05,3.8Z"/>
            <path class="cls-18" d="M258.12,208.29l-45.5-.04c-.52-1.26-.42-2.36-.02-3.85l45.48.15c.43,1.04.42,2.07.05,3.74Z"/>
          </g>
        </g>
      </g>
      <g>
        <g>
          <path class="cls-16" d="M274.31,84.81c-22.79,23.81-61.88,22.48-82.71-3.76-12.59-15.86-14.67-37.31-4.32-54.79C196.19,11.2,212.23,1.7,229.18.22c18.81-1.63,36.5,5.78,47.93,19.95,15.71,19.46,14.44,46.62-2.8,64.64Z"/>
          <g>
            <path class="cls-6" d="M200.12,54.66c4.04.9,7.24,3.44,8.39,6.88s.54,8.3-2.31,10.96c-3.64,3.38-9.62,3.76-13.6,1.21-4.23-2.71-6-7.87-4.2-12.42s6.71-7.04,11.73-6.62Z"/>
            <path class="cls-6" d="M260.23,68.59c-1.96-5.62,1.09-10.15,5.54-13.29,4.94-.96,9.69-.68,12.9,3.16,4.31,5.15,2.62,12.59-3.2,15.72s-12.88.43-15.24-5.58Z"/>
            <path class="cls-6" d="M230,88.23c-2.38,3.95-5.79,7.23-10.4,7.1s-8.84-2.89-10.3-6.95c-1.56-4.31-.08-9.15,3.56-11.99,2.56-2,6.97-2.04,9.98-1.11,6.05,1.86,7.96,7.71,7.17,12.95Z"/>
            <path class="cls-6" d="M258.66,22.47c-3.2,3.79-8.07,5.71-12.79,4.09s-7.66-6.26-7.04-11.1c.55-4.23,3.45-7.53,7.49-8.57,4.58-1.18,8.97.38,11.6,3.65,2.89,3.6,2.45,7.94.74,11.93Z"/>
            <path class="cls-6" d="M254.56,75.94c4.65,2.78,6.51,8.53,4.24,13.38-2.14,4.58-7.5,7.12-12.78,5.67-4.83-1.33-8.12-5.94-7.71-11.03.75-3.59,2.8-6.64,5.89-8.06s7.35-1.75,10.35.05Z"/>
            <path class="cls-6" d="M230.13,18.39c-1.04,4.57-5.19,8.16-9.62,8.65-5.35.59-9.79-2.46-11.55-7.34-.46-1.28-.02-2.71-.18-4.36.58-4.47,4.27-8.04,9.18-8.67,3.47-.45,6.88.57,9.21,3.04,1.83,1.93,3.64,5.72,2.97,8.68Z"/>
            <path class="cls-6" d="M202.16,26.88c3.9,1.79,6.88,5.31,6.76,9.89-.1,3.79-2.33,6.96-5.32,8.69-6.15,3.55-11.57.88-15.12-4.26-1.79-3.99-.91-8.59,1.96-11.59,3.21-3.36,7.44-3.5,11.72-2.72Z"/>
            <path class="cls-6" d="M267.28,46.61c-4.21-1.59-7.46-5.18-7.56-9.65-.09-4.16,2.54-8.55,6.62-10.01,4.6-1.65,9.85-.06,12.62,3.57s2.85,8.5-.09,12.35c-2.55,3.34-7.16,4.84-11.6,3.74Z"/>
            <g>
              <path class="cls-22" d="M238.82,15.46c-.62,4.84,2.09,9.41,7.04,11.1s9.6-.3,12.79-4.09c-.43,1-.69,1.92-2.24,3.09l4.1,4.62c1.34,0,5.36-5.66,5.82-3.24-4.08,1.46-6.71,5.85-6.62,10.01.1,4.48,3.35,8.07,7.56,9.65-.1.69-1.42.35-1.69.77-.96,1.43.04,3.31.11,4.77.05,1.09-1.28,2.71.08,3.15-4.46,3.14-7.5,7.68-5.54,13.29-.67.83-1.38.35-2.23.11-2.67-.78-4.07,1.39-4.45,3.73-.13.77-.99,1.21-.32,1.6l1.34.78c.4.23.48.83.53.99s-.34.19-.54.15c-3.01-1.8-7.26-1.48-10.35-.05s-5.14,4.47-5.89,8.06c-3.78.33-3.99-1.16-7.02-.34-.38.96.08,2.59-.81,3.68.43.74.12,1.26-.49.94.8-5.23-1.11-11.09-7.17-12.95-3.01-.93-7.42-.89-9.98,1.11-5.8-6.86-5.37-3.74-6.18-3.73-.2,0-.3.22-.49-.17,2.85-2.65,3.51-7.36,2.31-10.96s-4.34-5.98-8.39-6.88c.59-.97.64-6.76.88-6.65-2.26-1.01-6.57,1.31-11.45-4.41-.69-.81-1.64-1.31-1.08-2.4,3.55,5.14,8.97,7.81,15.12,4.26,2.99-1.72,5.22-4.9,5.32-8.69.12-4.59-2.85-8.1-6.76-9.89,1.76.32,4.12.95,5.19,3.25,1.9,1.04,2.15-2.04,6.22-3.94-4.27-2.36-6.39-6.47-5.73-11.19.44-.01.7.22.94.36.16,1.64-.28,3.08.18,4.36,1.76,4.88,6.2,7.93,11.55,7.34,4.42-.49,8.58-4.08,9.62-8.65,2.23,1.2,4.89,1.35,7.64.39.36-1.61-.27-2.95.2-4.34.52.48.24,1.16.85,1.01Z"/>
              <g>
                <path class="cls-18" d="M254.94,63.75c-5.88,8.3-15.7,11.76-25.89,9.78-8.68-1.69-16.51-8.55-18.83-17.8-3.65-14.54,8.26-28.1,22.32-28.84,8.1-.43,15.12,2.37,20.62,8.43,7.31,8.05,8.25,19.31,1.79,28.43Z"/>
                <path class="cls-17" d="M222.98,57.13c-.09.51-.92.67-1.1,1.5-.17.74.66,1.41,1.28,1.44.56.02.87-.8,1.44-.99.39.21,1.23.45,1.6,1.03.3.49-.36,1.21-.54,1.8-2.94-1.48-4.76-2.07-5.08-5.3.52.06.76-.3,1.18-.37.75-.11,1.09.42,1.23.88Z"/>
                <path class="cls-7" d="M250.07,50.63c-.6-.79-1.63-.99-2.51-.51.36-2.58-.51-2.25.38-3.87,1.98.11,3.11,2.83,2.12,4.38Z"/>
                <g>
                  <path class="cls-8" d="M247.95,46.25c-.9,1.62-.02,1.29-.38,3.87-.07.66-.27,1.81.82,2.13.56.16,1.29-.36,1.67-1.01.04,3.89-1.78-1.25-2.15,6.67-.14,2.9-2.25,2.62-3.94,3.58-1.28.73-2.28,2.74-4.18,3.54-1.64.7-2.4-.25-4,0l-3.98.6c-.84.41-1.44.42-.59-.26.74.2,1.09-.76.97-1.41-.08-.44-.46-1.02-1.22-1.15-.55-.09-.99.45-1.27,1.05s.46.67.52,1.24c-2.02-.1-2.75-2.51-4.55-3.19.18-.59.84-1.31.54-1.8-.37-.59-1.21-.82-1.6-1.03-.12-.87-.76-1.68-1.61-1.95-.14-.47-.48-1-1.23-.88-.43.06-.66.43-1.18.37-.08-.79.46-2.02-.15-2.97-.68-1.05-2.15-1.36-2.27-2.34-.59-4.84,1.53-4.22,3.43-6.51-.42-1.55-.5-2.97.38-4.26,2.17-3.19,5.57-1.68,5.83-1.73,1.06-.19.66-1.56,1.19-1.93,2.74-1.88,6.73-2.22,9.73-.45.68.4.41,2.27,1.7,2.22.83-.03,1.24-1.12,2.02-.65.42.25,1.15.92,1.61.98,5.11.65,2.59,5.46,3.91,7.27Z"/>
                  <g>
                    <path class="cls-5" d="M250.07,50.63c.35.2.3.41-.02.61-.39.64-1.12,1.17-1.67,1.01-1.08-.31-.88-1.47-.82-2.13.87-.48,1.91-.28,2.51.51Z"/>
                    <path class="cls-3" d="M231.2,65.37c-.4.33-.59-.25-1-.27-.06-.57-.79-.66-.52-1.24s.71-1.14,1.27-1.05c.76.13,1.14.71,1.22,1.15.12.64-.23,1.61-.97,1.41Z"/>
                    <path class="cls-23" d="M233.96,56.7c-3.6-.13-5.87-2.85-6.07-5.78-.2-2.87,1.94-5.71,5.22-6.27,3.87-.66,7.21,1.83,7.61,5.27s-2.45,6.94-6.76,6.78Z"/>
                    <path class="cls-14" d="M244.61,40.52c.76-.64,1.26-.13,1.82.53.42.49.07,1.36-.59,1.74-.43.25-.99.27-1.59-.24-.66-.55-.35-1.43.36-2.03Z"/>
                    <path class="cls-2" d="M223.02,40.5c.88-.35,1.46.42,1.59.9.16.62-.18,1.26-.81,1.49-.6.22-1.21-.24-1.55-.67-.39-.51-.07-1.38.77-1.72Z"/>
                    <path class="cls-11" d="M234.34,38.26c-.81.26-1.31-.42-1.46-.75-.18-.4-.36-1.23.37-1.86.78-.68,1.43.03,1.65.4.36.59.73,1.8-.56,2.21Z"/>
                    <path class="cls-13" d="M237.96,62.8c.74-.45,1.32.13,1.57.68.3.66-.02,1.15-.42,1.6-.64.71-1.34-.02-1.88-.65-.37-.43-.09-1.12.74-1.63Z"/>
                    <path class="cls-15" d="M224.59,59.08c-.57.18-.88,1.01-1.44.99-.62-.02-1.44-.69-1.28-1.44.18-.83,1.02-.99,1.1-1.5.85.27,1.5,1.08,1.61,1.95Z"/>
                    <path class="cls-4" d="M245.56,57.75c.7-.31,1.43.37,1.63.79.35.72-.09,1.28-.68,1.48-.77.26-1.26.3-1.86-.42-.43-.51-.01-1.43.9-1.85Z"/>
                    <path class="cls-24" d="M219.1,49.78c.65-.45,1.24-.26,1.67.36.29.42.43,1.17-.27,1.67-.41.3-1.29.32-1.8-.32-.3-.38-.32-1.22.4-1.71Z"/>
                  </g>
                </g>
              </g>
            </g>
          </g>
        </g>
        <g>
          <path class="cls-16" d="M118.68,101.61c-16.45.24-31.27-6.46-41.92-18.52-14.44-16.35-16.63-39.4-5.05-57.9C80.55,11.08,95.53,1.99,112.55.28c23.09-2.31,45.15,9.72,54.64,30.12,8.47,18.22,4.5,39.83-9.67,54.58-10.24,10.66-23.88,16.4-38.84,16.62Z"/>
          <g>
            <path class="cls-6" d="M150.24,75.46c-3.56-2.48-6.85-5.35-6.99-9.78-.12-3.97,2.07-8.26,5.93-10.02,4.41-2.01,9.51-.84,12.56,2.21s3.85,7.97,1.74,11.91-6.46,6.28-11.21,5.51c-.85-.14-1.44-.07-2.05.16Z"/>
            <path class="cls-6" d="M142.89,80.91c2.21,5.79-1.5,12.18-6.99,13.9-6.29,1.97-11.45-1.61-14.02-7.07-.59-5.52,1.84-10.91,7.81-12.63,4.43-1.28,11.32.88,13.2,5.8Z"/>
            <path class="cls-6" d="M83.52,54.73c4.87.66,8.66,4.54,9.15,9.13.53,4.94-2.55,9.42-7.08,11.09-3.64.7-9.41.31-11.76-3.15-2.51-3.69-3.67-7.81-1.06-12.05,2.06-3.35,6.4-5.62,10.76-5.02Z"/>
            <path class="cls-6" d="M113.53,13.97c1.12,3.98-.38,8.28-3.9,10.92-3.09,2.32-8.49,3.24-12.19.95-3.78-2.34-5.57-7.27-4.76-11.08.98-4.64,4.74-7.83,9.73-8.21s9.75,2.8,11.12,7.42Z"/>
            <path class="cls-6" d="M149.74,46.14c-5.49-2.47-8.53-9.58-5.15-14.92,3.58-5.64,12.11-6.48,16.89-2,3.96,3.71,4.22,9.51,1.03,13.66-2.87,3.72-8.22,5.1-12.78,3.26Z"/>
            <path class="cls-6" d="M113.76,85.83c-.55,5.91-6.15,10.24-12.07,9.44-6.12-.82-10.39-6.2-9.17-12.38.08-.39-.29-.78-.31-1,.72,0,.83-.72,1.17-1.38,2.38-4.66,7.8-6.87,12.8-5.28,4.49,1.43,8.03,5.77,7.59,10.59Z"/>
            <path class="cls-6" d="M139.99,24.86c-3.43,2.17-7.24,3.07-11.27,1.34-2.83-1.21-5.75-4.17-6.36-7.69-.81-4.64,1.79-8.87,5.33-10.73,4.34-2.27,9.26-1.59,12.75,1.59,4.79,4.37,3.82,11.09-.45,15.49Z"/>
            <path class="cls-6" d="M87.07,27.43c4.56,2.79,6.91,8.07,4.66,13.15-2,4.53-7.3,7.33-12.25,6.07-6.49-1.65-9.92-8.12-7.44-14.02s9.24-7.69,15.03-5.2Z"/>
            <g>
              <path class="cls-22" d="M122.36,18.51c.61,3.52,3.54,6.48,6.36,7.69,4.03,1.73,7.84.83,11.27-1.34-.98,1.18,2.4,4.89,3.97,5.07-.38.31-.31.99-.05,1.12.2.1.67-.66.68.17-3.39,5.34-.35,12.45,5.15,14.92-.24.43.51.57.53.81.02.31-.93.59-.96.84l-.67,4.85c-.17,1.21-.16,2.23.55,3.03-3.87,1.76-6.06,6.05-5.93,10.02.14,4.43,3.42,7.3,6.99,9.78-5.2-1.12-3.3-3.94-6.92-3.52.18-.02-3.41,3.36-3.74,3.88l3.01,3.6c.24.29.36.63.51.77.23.22,0,.6-.21.72-1.88-4.93-8.77-7.08-13.2-5.8-5.96,1.72-8.4,7.11-7.81,12.63-1.11,1.18-.56-3.92-1.38-3.8l-5.84-.67c-.28,1.57.26,2.91-.29,4.11-.67-.54.1-1.56-.62-1.55.45-4.81-3.09-9.16-7.59-10.59-5-1.59-10.42.62-12.8,5.28-.34.66-.44,1.39-1.17,1.38-.19-1.83,2.78-4.88,3.79-6.32-1.18-1.82-2.78-3-4.35-4.13-5.58,4.14-.55,2.43-6.07,3.48,4.53-1.67,7.61-6.15,7.08-11.09-.49-4.59-4.29-8.46-9.15-9.13.94-.76,1.77-.98,2-1.9.41-1.64-.54-4.77-.95-4.9-3.38-1.04-5.5.88-5.09-1.28,4.95,1.26,10.25-1.54,12.25-6.07,2.25-5.08-.1-10.36-4.66-13.15-.06-.09-.01-.28.24-.57,2.17,1.32,4.25,3.1,5.05,5.4,2.45-1.08,6.07-5.21,5.07-6.41,3.7,2.29,9.1,1.37,12.19-.95,3.52-2.65,5.02-6.94,3.9-10.92.21.03.73-.1,1.01.08l.12,4.83,6.46.13c.22.42-.35,1.45.62,1.42-.03-.94-.16-1.74.62-1.92Z"/>
              <g>
                <path class="cls-18" d="M138.19,63.92c-5.14,6.77-12.58,10.22-20.97,10.06-8.4-.16-15.59-4.27-19.83-10.4-4.8-6.95-5.58-15.65-1.99-22.88,3.89-7.82,11.38-13.02,20.13-13.7s15.86,2.27,21.35,8.43c7.22,8.09,8.11,19.51,1.3,28.49Z"/>
                <path class="cls-21" d="M132.76,53.12c-.35-.22-.21-.27.05-.49.52-.41,1.15-1.15.79-1.77-.51-.85-1.38-.93-2.25-.7-.16-.38-.62-3.91.6-3.84,2.36,1.05,3.03,5.97.82,6.79Z"/>
                <g>
                  <path class="cls-25" d="M131.94,46.34c-1.22-.07-.75,3.46-.6,3.84.17.4-.84,1.12-.25,1.75.38.4,1.01.62,1.72.72-.27.21-.4.26-.05.49-2.42.89,1.21,5.62-5.5,8.54-2.09.91-4.01,4.07-6.33,4.07-2.24-2.78-6.06,1.67-8.26-.69-4.47-4.78-9.41-4.07-8.48-9.5.47-2.72-2.41-2.83-1.85-3.84.68.16,1.41.35,1.89.02.61-.42.72-1.01.41-1.56-.37-.65-1.16-1.03-1.65-.59-.52.49-1.26.89-.87,1.48-1.36-2.49.66-4.67,2.73-6.06.13-1.37-.28-3.77,1.1-4.85,5.31-4.15,4.23-.24,6.04-1.34.66-.4.75-.81.85-1.53.21-1.44,1.78-1.18,2.74-1.53,3.35-1.2,7.1-.45,8.39,3.27,1.73-1.48,2.65-.6,4,.02,6.18,2.84,1.01,5.98,3.97,7.29Z"/>
                  <g>
                    <path class="cls-1" d="M102.34,51.72l-.22-.65c-.39-.59.35-.99.87-1.48.48-.45,1.28-.07,1.65.59.31.54.2,1.14-.41,1.56-.48.33-1.2.15-1.89-.02Z"/>
                    <path class="cls-6" d="M119.69,56.36c-3.79,1.15-7.62-1.24-8.17-4.9-.52-3.42,2.2-6.84,6.13-6.99,3.21-.12,5.83,2.08,6.45,4.55.82,3.29-1.1,6.33-4.4,7.33Z"/>
                    <path class="cls-9" d="M128.55,40.42c.65-.44,1.22.27,1.58.73.49.63.07,1.27-.76,1.69-.48.24-1.29.08-1.71-.62-.33-.54.2-1.32.9-1.8Z"/>
                    <path class="cls-10" d="M106.6,40.47c.71-.38,1.19.19,1.54.77.3.5-.03,1.19-.76,1.61-.51.29-1.18-.18-1.58-.65-.53-.62.12-1.36.8-1.73Z"/>
                    <path class="cls-10" d="M132.81,52.64c-.7-.1-1.34-.31-1.72-.72-.59-.63.42-1.35.25-1.75.87-.23,1.74-.15,2.25.7.37.61-.27,1.36-.79,1.77Z"/>
                    <path class="cls-20" d="M106.59,57.56c.7-.38,1.33.51,1.38.95.08.67-.42,1.19-.88,1.41s-1.46-.08-1.66-.72.31-1.18,1.17-1.64Z"/>
                    <path class="cls-12" d="M117.76,35.35c.84,0,1.23.77,1.36,1.22.18.64-.26,1.4-.74,1.5-.71.16-1.36-.22-1.55-.65-.28-.6.03-2.07.94-2.07Z"/>
                    <path class="cls-3" d="M113.65,62.95c.78-.48,1.33.25,1.58.82s.06,1.27-.57,1.57c-.69.33-1.08-.11-1.72-.59-.43-.33-.11-1.29.7-1.79Z"/>
                    <path class="cls-19" d="M120.86,62.81c.59-.32,1.18,0,1.53.36.47.5.27,1.34-.23,1.71-.56.41-1.46.22-1.8-.28-.4-.61-.23-1.39.5-1.79Z"/>
                    <path class="cls-1" d="M128.61,57.72c.62-.4,1.42.29,1.7.76.41.7-.18.85-.89,1.41-.34.27-.82.23-1.56-.42-.39-.34-.21-1.13.75-1.76Z"/>
                  </g>
                </g>
              </g>
            </g>
          </g>
        </g>
      </g>
    </g>
  </g>
</svg>