<?xml version="1.0" encoding="UTF-8"?>
<svg id="Layer_1" data-name="Layer 1" xmlns="http://www.w3.org/2000/svg" viewBox="0 0 360 240">
  <defs>
    <style>
      .cls-1 {
        fill: #232933;
      }

      .cls-2 {
        fill: #27282c;
      }

      .cls-3 {
        fill: #252932;
      }

      .cls-4 {
        fill: #29313d;
      }

      .cls-5 {
        fill: #272e33;
      }

      .cls-6 {
        fill: #292e33;
      }

      .cls-7 {
        fill: #2d2f32;
      }

      .cls-8 {
        fill: #413935;
      }

      .cls-9 {
        fill: #242a32;
      }

      .cls-10 {
        fill: #2d3035;
      }

      .cls-11 {
        fill: #1d252f;
      }

      .cls-12 {
        fill: #433b36;
      }

      .cls-13 {
        fill: #252d37;
      }

      .cls-14 {
        fill: #323232;
      }

      .cls-15 {
        fill: #2e2e35;
      }

      .cls-16 {
        fill: #b8c1c0;
      }

      .cls-17 {
        fill: #65c0e0;
      }

      .cls-18 {
        fill: #292d34;
      }

      .cls-19 {
        fill: #e9a5a5;
      }

      .cls-20 {
        fill: #272c31;
      }

      .cls-21 {
        fill: #2a2d32;
      }

      .cls-22 {
        fill: #d2dadf;
      }

      .cls-23 {
        fill: #82c1d9;
      }

      .cls-24 {
        fill: #22282f;
      }
    </style>
  </defs>
  <g id="Generative_Object" data-name="Generative Object">
    <g>
      <path class="cls-16" d="M323.97,239.47l-42.96-.34c-3.87-.03-8,.44-11.61.39-59.5-.8-119.5,1.47-178.99-.09l-11.85-.31c-14.5-.38-28.8-.9-42.64.5-.26.03-.48-.02-.64-.56l-24.33-.06C5.09,239,0,233.49,0,227.11V12.47C0,6.31,5.08.62,11.05.6l143.17-.32,51.56-.29,142.2.54c5.67.02,11.91,4.4,11.91,10.96l.12,215.11c0,7.22-5.56,12.38-12.46,12.49l-23.56.38Z"/>
      <path class="cls-17" d="M330.93,229.78l-75.35.02-165.56-.03-71.78.04c-4.54,0-8.92-3.34-8.92-8.25V19.79c-.01-4.33,3.32-9.59,8.01-9.6l324.05-.04c4.27,0,9.39,3.85,9.39,8.78l.15,200.7c0,5.42-2.63,9.95-8.16,10.22-3.68.18-7.41-.08-11.83-.07Z"/>
      <path class="cls-19" d="M343.61,217.96c0,3.92-3.43,6.98-6.79,6.98l-315.67.02c-3.99,0-7.77-2.81-7.77-7.28l-.02-196.24c0-3.51,2.83-5.22,5.89-5.22l319.1.02c2.89,0,5.31,1.99,5.31,5.23l-.02,103.8-.02,92.71Z"/>
      <g>
        <g>
          <path class="cls-7" d="M336.09,128.74l-47.92-.03c-1.14,0-1.39-1.9-.52-2.46h48.45c.89.62.83,1.84,0,2.49Z"/>
          <path class="cls-4" d="M336.38,134.13l-47.67.07c-.87,0-1.19-.4-1.36-.74s-.22-1.71.47-1.71h48.3c.78.52.55,1.39.27,2.38Z"/>
          <path class="cls-18" d="M336.3,139.7h-47.46c-.98.01-1.4-.32-1.55-.78-.12-.37-.15-1.55.53-1.55h48.26c.81.01.63,1.6.22,2.33Z"/>
          <path class="cls-21" d="M336.14,145.18h-47.89c-.64,0-.86-.5-.98-.77-.16-.36-.08-1.56.55-1.56h48.29c.78.47.77,1.47.03,2.33Z"/>
          <path class="cls-15" d="M336.24,200.1l-47.53.1c-.88,0-1.25-.33-1.46-.75-.18-.35-.31-1.7.49-1.7l47.31-.02c.78,0,1.12.34,1.45.38s.18,1.99-.25,1.99Z"/>
          <path class="cls-6" d="M336.18,123.04l-47.48.1c-.84,0-1.19-.29-1.33-.64-.25-.62-.16-1.7.83-1.7l47.88.05c.82,0,.61,2.19.1,2.19Z"/>
          <path class="cls-10" d="M336.11,156.21h-47.91c-1.04-.01-1.29-1.64-.67-2.4l48.54.08c.8,0,.8,1.91.05,2.33Z"/>
          <path class="cls-5" d="M336.13,150.69l-47.42.04c-.83,0-1.29-.47-1.44-.84s-.12-1.57.56-1.57l48.24.04c.74.59.76,1.4.06,2.34Z"/>
          <path class="cls-9" d="M336.09,194.66h-48.38c-.74-.39-.78-2.39,0-2.39l47.33-.04c.67,0,1.24.09,1.44.48.19.36.28.92-.39,1.95Z"/>
          <path class="cls-2" d="M336.08,167.23l-47.92.04c-1.13,0-1.3-2.38-.47-2.38h48.38c.81-.01.76,2.08,0,2.34Z"/>
          <path class="cls-20" d="M336.45,172.68l-48.23.03c-.77,0-1-.57-1.01-.88s-.12-1.51.54-1.51h48.29c.69,0,.8,1.32.41,2.36Z"/>
          <path class="cls-1" d="M336.07,183.67l-47.36.07c-.76,0-1.11-.28-1.34-.52-.3-.31-.37-1.88.39-1.88h48.29c.82,0,.78,2.32.01,2.32Z"/>
          <path class="cls-3" d="M335.54,189.15h-47.32c-.77,0-.99-.63-1-.94s-.15-1.44.53-1.44l47.31.04c.91,0,1.57.15,1.58.87,0,.67-.08,1.47-1.09,1.47Z"/>
          <path class="cls-24" d="M336.04,205.51l-47.34.1c-.72,0-1.19-.25-1.39-.51-.27-.34-.27-1.84.46-1.84l48.31.08c.8,0,.7,2.17-.04,2.18Z"/>
          <path class="cls-13" d="M336.06,178.13l-47.35.13c-.77,0-1.07-.31-1.32-.51-.34-.26-.46-1.98.32-1.98l48.36.05c.81,0,.74,2.31-.01,2.31Z"/>
          <path class="cls-11" d="M336.13,161.69l-47.42.04c-.71,0-1.14-.31-1.32-.65-.27-.51-.43-1.24.33-1.78l48.35.08c.71.57.75,1.34.06,2.3Z"/>
        </g>
        <g>
          <path class="cls-16" d="M206.05,217.73c-37.03,1.09-73.16,1.04-109.82,0l-66.06-1.86c-2.81-.08-5.54-3.27-5.66-6.14l-2.81-67.08c-1.33-31.66.59-62.81,1.15-94.38l.28-15.59c.09-4.83,3.22-8,8.08-8.05l109.05-1.19,129.55,1.62c3.45.04,6.19,3.81,6.31,7.21l1.55,43.3c.9,25.21.91,49.8-.2,75.04l-2.56,58.17c-.13,2.92-2.2,6.98-5.44,7.08l-63.42,1.87Z"/>
          <path class="cls-14" d="M228.23,206.24c-54.27,3.74-108.36,3.65-162.56-.49-6.41-.49-12.12-.96-18.29-2.05-5.74-1.01-10.06-5.16-10.94-11.4-6.68-47.39-6.91-96.02-.95-143.5.88-7.05,5.58-11.57,12.03-12.31,13.19-1.52,26.1-2.38,39.64-3.1,34.9-1.86,69.34-2.21,104.28-1,20.35.7,40.11,1.73,60.27,3.94,6.27.69,11.07,4.82,11.92,11.45,6.24,48.72,5.7,95.42-.89,144.02-.92,6.76-5.69,11.21-11.91,12.14-7.64,1.14-14.75,1.76-22.6,2.3Z"/>
          <g>
            <path class="cls-23" d="M72.13,202.97c-8.15-.61-15.22-1.32-22.81-2.47-5.77-.87-9.43-5.11-10.28-11.17-6.46-46.52-6.73-88.21-1.2-135.06.82-6.96,2.76-12.82,10.05-13.9,10.92-1.63,21.44-2.47,32.6-3.24,47.08-3.26,93.97-3.22,141.06-.01,10.39.71,20.06,1.49,30.28,3.08,4.73.73,8.5,4.45,9.16,9.57,6.05,46.98,5.68,94.28-1.37,141.06-.84,5.59-5.15,9.09-9.79,9.75-9.7,1.37-18.84,2.2-28.77,2.88-49.66,3.43-98.96,3.28-148.94-.47Z"/>
            <path class="cls-22" d="M186.84,77.61c-17.24-6.51-34.58-9.6-52.85-10.14-26.2-.77-51.81.23-78.08,2.75.07-8.62-.97-20.76,9.79-22.25,31.33-4.33,62.8-5.65,94.62-4.75,31.08.88,61.53,3.38,92.27,7.46,2.02.27,5.43,1.69,5.53,3.89,1.05,23.09,1.21,45.53.81,68.89-20.79-20.86-45.19-35.58-72.07-45.86Z"/>
          </g>
        </g>
        <g>
          <path class="cls-16" d="M323.72,112.16c-9.47,5.64-21.11,3.2-28.05-5.12-8.5-10.19-5.72-25.78,5.59-32.38,11.37-6.64,26.18-1.83,31.45,10.87,4.09,9.86.17,21.17-8.99,26.63Z"/>
          <path class="cls-17" d="M329.09,104.17c-4.56,6.5-11.62,9.77-19.3,8.9-6.92-.78-13.47-5.32-16.42-12.63-3.07-7.58-1.11-15.45,4.16-21.13,6.99-7.54,17.37-8.6,25.79-2.94,9.04,6.09,12.21,18.63,5.78,27.8Z"/>
          <g>
            <path class="cls-8" d="M328.73,91.61c.78,6.45-2.46,12.66-7.89,15.25-7.64,3.65-16.39,2.6-21.78-4.39-4.46-5.78-4.24-14.73.86-20.11,6.67-7.04,17.65-6.91,24.53-.35,2.75,2.62,3.82,5.76,4.28,9.6Z"/>
            <path class="cls-17" d="M324.2,99.31c-1.69,3.36-3.97,5.65-7.26,6.88.12-.59-.52-.11-.98-.32-5.24-5.73-10.2-11.24-14.88-17.4-.55-.73-1.01-1.38-.94-2.05,1.77-2.77,3.65-5.37,6.79-6.21l17.27,19.11Z"/>
            <path class="cls-16" d="M324.2,99.31l-17.27-19.11c6.65-2.34,13.9.36,17.27,6.58,2.28,4.21,1.91,8.74,0,12.52Z"/>
            <path class="cls-16" d="M316.94,106.19c-6.81,2.54-14.71-.67-17.76-7.8-1.82-4.24-1.18-8.61.96-11.97-.07.67.39,1.33.94,2.05,4.68,6.16,9.65,11.67,14.88,17.4.46.21,1.1-.27.98.32Z"/>
          </g>
        </g>
        <g>
          <path class="cls-16" d="M327.37,30.33c8.86,8.31,9.22,22.28.27,31.09-7.41,7.28-18.36,8.03-27.12,2.61s-11.99-15.93-8.81-25.41c3.13-9.31,12.1-15.12,21.84-14.4,5.29.4,9.95,2.48,13.82,6.11Z"/>
          <path class="cls-17" d="M331.48,51.27c-1.93,6.54-7.18,11.02-12.07,12.91-7.03,2.72-13.89,1.52-19.34-2.44-8.3-6.04-10.8-17.47-5.5-26.3,6.16-10.26,18.52-13.33,28.26-6.92,7.29,4.8,11.32,13.7,8.65,22.74Z"/>
          <g>
            <path class="cls-12" d="M320.5,59.5c-6.96,3.43-14.62,2.48-20.02-2.73-5.84-5.64-6.41-15.46-1.01-21.65,5.75-6.6,15.5-7.34,22.35-2.68,4.08,2.77,6.37,6.88,6.93,12.05.63,5.8-2.61,12.23-8.25,15.01Z"/>
            <path class="cls-17" d="M323.6,52.71c-1.94,3.39-4.35,4.93-7.65,5.94-5.35-6.51-11.32-12.48-16.25-19.36,1.71-2.63,3.16-5.37,6.14-6.34,1.04.14,1.75.79,2.58,1.7l14.63,15.88c.67.73,1.08,1.42.55,2.19Z"/>
            <path class="cls-16" d="M323.6,52.71c.54-.77.12-1.47-.55-2.19l-14.63-15.88c-.83-.9-1.55-1.56-2.58-1.7,6.77-3.24,15.16-.25,18.49,6.88,2.08,4.45,1.42,9.12-.73,12.89Z"/>
            <path class="cls-16" d="M315.95,58.65c-4.3,1.31-9.01.92-12.98-2.43-5.09-4.29-6.72-11.62-3.27-16.94,4.93,6.88,10.91,12.85,16.25,19.36Z"/>
          </g>
        </g>
      </g>
    </g>
  </g>
</svg>